<svg xmlns="http://www.w3.org/2000/svg" viewBox="0 0 119.14 117.49"><defs><style>.cls-1{fill:#d4a272;}.cls-2{fill:#dcb28d;}</style></defs><title>Asset 9</title><g id="Layer_2" data-name="Layer 2"><g id="Layer_1-2" data-name="Layer 1"><rect class="cls-1" x="2.03" y="2" width="115.08" height="113.49" rx="5.97" ry="5.97" transform="translate(0.84 -0.84) rotate(0.81)"/><path d="M110.36,117.49h-.11L7.21,116a7.32,7.32,0,0,1-5.14-2.19A7.1,7.1,0,0,1,0,108.72L1.48,7.1A7.07,7.07,0,0,1,3.69,2a7.38,7.38,0,0,1,5.2-2L111.94,1.45a7.32,7.32,0,0,1,5.13,2.19,7.06,7.06,0,0,1,2.07,5.13l-1.47,101.61a7.13,7.13,0,0,1-2.22,5.07A7.3,7.3,0,0,1,110.36,117.49ZM8.78,2.56A4.72,4.72,0,0,0,5.5,3.88,4.59,4.59,0,0,0,4.07,7.14L2.6,108.76a4.55,4.55,0,0,0,1.33,3.3,4.64,4.64,0,0,0,3.31,1.41l103.05,1.46a5,5,0,0,0,3.35-1.32,4.59,4.59,0,0,0,1.43-3.26L116.54,8.73a4.55,4.55,0,0,0-1.33-3.3A4.64,4.64,0,0,0,111.9,4L8.85,2.56Z"/><rect class="cls-2" x="43.87" y="3.77" width="36.24" height="54.84" transform="translate(0.45 -0.87) rotate(0.81)"/><path d="M79.84,59h-.13l-36.37-.51v-.13l.79-55h.13l36.37.52V4Zm-36.23-.77,36,.5.8-54.57-36-.51Z"/></g></g></svg>