<svg xmlns="http://www.w3.org/2000/svg" viewBox="0 0 101.28 101.28"><defs><style>.cls-1{fill:#d4a272;}.cls-2{fill:#dcb28d;}</style></defs><title>Asset 8</title><g id="Layer_2" data-name="Layer 2"><g id="Layer_1-2" data-name="Layer 1"><rect class="cls-1" x="1.13" y="1.13" width="99.03" height="99.03" rx="3.67" ry="3.67"/><path d="M96.48,101.28H4.8A4.8,4.8,0,0,1,0,96.48V4.8A4.8,4.8,0,0,1,4.8,0H96.48a4.8,4.8,0,0,1,4.8,4.8V96.48A4.8,4.8,0,0,1,96.48,101.28ZM4.8,2.25A2.55,2.55,0,0,0,2.25,4.8V96.48A2.55,2.55,0,0,0,4.8,99H96.48A2.55,2.55,0,0,0,99,96.48V4.8a2.55,2.55,0,0,0-2.55-2.55Z"/><rect class="cls-2" x="38.8" y="2.15" width="23.09" height="49.83"/><path d="M62,52.09H38.69V2H62Zm-23.1-.22H61.78V2.27H38.91Z"/></g></g></svg>