<svg xmlns="http://www.w3.org/2000/svg" viewBox="0 0 154.15 154.15"><defs><style>.cls-1{fill:#d4a272;}.cls-2{fill:#dcb28d;}</style></defs><title>Asset 6</title><g id="Layer_2" data-name="Layer 2"><g id="Layer_1-2" data-name="Layer 1"><rect class="cls-1" x="3.21" y="3.21" width="147.73" height="147.73" rx="5.01" ry="5.01" transform="translate(1.54 -1.51) rotate(1.14)"/><path d="M144.55,154.15h-.14L6.73,151.41a6.88,6.88,0,0,1-6.73-7L2.73,6.73A6.89,6.89,0,0,1,4.84,1.91,7,7,0,0,1,9.74,0L147.41,2.73a6.88,6.88,0,0,1,6.74,7l-2.74,137.67a6.88,6.88,0,0,1-6.86,6.74ZM9.6,3.71A3.16,3.16,0,0,0,6.44,6.8L3.71,144.48a3.16,3.16,0,0,0,3.1,3.22l137.67,2.74a3,3,0,0,0,2.25-.88,3.13,3.13,0,0,0,1-2.22L150.44,9.66a3.19,3.19,0,0,0-.88-2.25,3.16,3.16,0,0,0-2.22-1L9.67,3.71Z"/><rect class="cls-2" x="62.51" y="4.94" width="30.37" height="81" transform="translate(0.92 -1.53) rotate(1.14)"/><path d="M92.26,86.43l-30.74-.61L63.14,4.46l30.74.61Zm-30.36-1,30,.6L93.5,5.43l-30-.59Z"/></g></g></svg>