<svg xmlns="http://www.w3.org/2000/svg" xmlns:xlink="http://www.w3.org/1999/xlink" viewBox="0 0 941.63 509.23"><defs><style>.cls-1,.cls-11,.cls-12,.cls-6,.cls-7,.cls-8{fill:none;}.cls-2{clip-path:url(#clip-path);}.cls-3{fill:#00d584;}.cls-4{fill:#004e7c;}.cls-5{fill:#85aac0;}.cls-10,.cls-6,.cls-7,.cls-8{stroke:#939598;}.cls-12,.cls-6,.cls-7{stroke-linejoin:bevel;}.cls-10,.cls-11,.cls-12,.cls-14,.cls-15,.cls-16,.cls-19,.cls-6,.cls-7,.cls-8,.cls-9{stroke-width:4px;}.cls-7{stroke-linecap:square;}.cls-10,.cls-11,.cls-14,.cls-15,.cls-16,.cls-17,.cls-18,.cls-19,.cls-8,.cls-9{stroke-miterlimit:10;}.cls-10,.cls-9{fill:#fff;}.cls-11,.cls-12,.cls-9{stroke:#58595b;}.cls-13{fill:#007c4d;}.cls-14{fill:#5c5956;stroke:#5c5956;}.cls-15,.cls-16,.cls-19{fill:#b5f1ad;}.cls-15{stroke:#6f6c6a;}.cls-16{stroke:#797675;}.cls-17{fill:#99eb91;stroke:#99eb91;}.cls-18{fill:#676461;stroke:#676461;}.cls-19{stroke:#b5f1ad;}.cls-20{fill:#6a6765;}.cls-21{fill:#605d5b;}.cls-22{fill:#6f3c21;}.cls-23{fill:#8f1722;}.cls-24{fill:#e24d00;}</style><clipPath id="clip-path"><rect id="clipping_mas" data-name="clipping mas" class="cls-1" x="31.1" y="48.5" width="667" height="417.68"/></clipPath></defs><title>map 1</title><g id="Layer_2" data-name="Layer 2"><g id="Layer_1-2" data-name="Layer 1"><g id="map_1" data-name="map 1"><g id="Path_Weight_Game" data-name="Path Weight Game"><g class="cls-2"><rect class="cls-3" x="31.1" y="48.5" width="667" height="417.68"/><g id="River"><path id="river-2" data-name="river" class="cls-4" d="M496.29,35.46c-1.72,11.86-33,75.41-35.16,96.87-3,30-26.3,50.17-43.5,65-64.55,55.68-34.47,86.29-39.5,123-5,36.46-43.88,28.38-75,52-43.44,33-23.46,72-19.75,102.45L189,487.5c3.54-30.57,11.31-118.84,48.13-147.92,28.39-22.41,58.18,17.64,66.5-48,6.33-49.93,53.7-13.06,56.5-113.5.76-27.07,35.54-34.54,50.5-63.5,9.9-19.16,8.8-68.53,11.68-80.16Z"/><path class="cls-5" d="M412.75,170.82c.63,7.13.71,21.27-8.53,31.24a28.81,28.81,0,0,1-2.57,2.45C408.29,191.64,410.76,181.09,412.75,170.82Z"/><path class="cls-5" d="M366.66,264.64c-.51.17-1.78-2.3-2.46-3.81-.85-1.93-6.24-8.46-2.2-10.86,10.23-6.07,12.24-19,12-22.66s3.06,10.5-2,16.66c-2.11,2.58-3.38,1.92-5,4.34C362.78,254.57,367.67,264.31,366.66,264.64Z"/><path class="cls-5" d="M225.53,426c-1.08-2.81-3.66-10.33-.8-18.23a26.77,26.77,0,0,1,5-8.33c3.9-4.33,6.09-3.62,7.83-6.84,2.32-4.3-.61-7.39,1.17-12.66a15.68,15.68,0,0,1,6.5-7.84c-9.42,10.13-2.88,19.67-7.34,23.42C223.43,406.3,224.48,413.47,225.53,426Z"/><path class="cls-5" d="M431,90.7c1.14,2.79,3.9,10.24,1.24,18.21a27.05,27.05,0,0,1-4.79,8.45c-3.8,4.42-6,3.76-7.67,7-2.22,4.36.79,7.38-.86,12.69a15.61,15.61,0,0,1-6.31,8c9.17-10.35,2.4-19.73,6.77-23.58C433.55,110.3,432.32,103.16,431,90.7Z"/><path class="cls-5" d="M275.85,398.41c-.51.17-1.79-2.3-2.46-3.82-.86-1.92-6.24-8.45-2.21-10.85,10.24-6.07,12.25-19,12-22.67s3.06,10.5-2,16.67c-2.11,2.57-3.37,1.92-5,4.33C272,388.33,276.86,398.08,275.85,398.41Z"/><path class="cls-5" d="M349.27,338.85c3.37-3.26,7.41-8.26,8.66-15,1.35-7.27-1.29-12.52-2.66-18-1.87-7.47-2.16-18.52,5-34-4,13.2-4.79,29.64.46,48.45C364.2,332.74,349.27,338.85,349.27,338.85Z"/><path class="cls-4" d="M311,309.3c-.09-7.16.9-21.26,10.87-30.5a31.83,31.83,0,0,1,2.75-2.25C317,288.89,313.74,299.21,311,309.3Z"/></g><g id="roads"><polyline class="cls-6" points="582.1 25.45 588.83 226.43 596.92 467.93"/><path class="cls-7" d="M396.74,480.28s8.36-237.43,11.36-244.93l52-48.17,3,306.89"/><line class="cls-6" x1="530.08" y1="129.97" x2="731.6" y2="119.85"/><line class="cls-8" x1="310.96" y1="490.02" x2="398.6" y2="349.18"/><line class="cls-9" x1="532.02" y1="494.07" x2="527.96" y2="11.53"/><line class="cls-9" x1="770.6" y1="349.18" x2="156.04" y2="349.18"/><line class="cls-9" x1="151.8" y1="190.52" x2="217.75" y2="190.52"/><line class="cls-10" x1="150.36" y1="136.74" x2="146.85" y2="25.45"/><polyline class="cls-6" points="227.61 0.11 216.95 192.04 211.78 317.81 285.39 249.19 291.03 158.05"/><line class="cls-10" x1="92.17" y1="509.18" x2="79.51" y2="11.48"/><polyline class="cls-11" points="150.36 136.74 324.6 93.18 461.32 263.64"/><line class="cls-6" x1="655.81" y1="277.93" x2="655.6" y2="163.61"/><line class="cls-8" x1="817.31" y1="143.8" x2="458.96" y2="187.71"/><line class="cls-11" x1="354.42" y1="129.97" x2="217.75" y2="190.52"/><line class="cls-9" x1="723.6" y1="285.18" x2="8.27" y2="226.43"/><line class="cls-8" x1="0.27" y1="288.51" x2="213.44" y2="317.3"/><line class="cls-6" x1="941.6" y1="232.18" x2="588.83" y2="226.43"/><line class="cls-12" x1="655.95" y1="481.18" x2="655.95" y2="279.62"/><line class="cls-9" x1="159.69" y1="485.39" x2="150.36" y2="136.74"/><line class="cls-11" x1="268.48" y1="19.08" x2="326.83" y2="95.96"/><line class="cls-8" x1="84.37" y1="152.89" x2="3.27" y2="174.18"/><line class="cls-8" x1="154.1" y1="348.85" x2="15.6" y2="348.85"/></g><g id="brown"><circle class="cls-13" cx="157.02" cy="349.18" r="31.58"/><g id="post_office" data-name="post office"><rect class="cls-14" x="141.34" y="338.41" width="30.64" height="21.88"/><rect class="cls-15" x="140.04" y="361.4" width="33.38" height="0.17"/><rect class="cls-16" x="138.97" y="362.69" width="35.52" height="0.21"/><rect class="cls-17" x="153.09" y="346.76" width="7.87" height="13.86"/><ellipse class="cls-18" cx="160.09" cy="353.9" rx="0.15" ry="0.14"/><rect class="cls-19" x="137.61" y="333.55" width="38.51" height="4.61" rx="2.31" ry="2.31"/><g id="envelope"><path class="cls-20" d="M160.57,338.49a23.72,23.72,0,0,1-8.5,0,.18.18,0,0,1-.15-.14,18.24,18.24,0,0,1-.36-5,.16.16,0,0,1,.08-.1c1-.55,6.73-.91,9.26,0a.16.16,0,0,1,.1.08c.25.51.14,2.07-.28,5A.18.18,0,0,1,160.57,338.49Z"/><path d="M156.45,339a34.62,34.62,0,0,1-4.39-.36.27.27,0,0,1-.24-.23v0a18.69,18.69,0,0,1-.36-5,.26.26,0,0,1,.14-.17c1.06-.57,6.8-.92,9.35,0a.24.24,0,0,1,.15.13c.26.52.18,1.93-.27,5a.29.29,0,0,1-.23.23h0A26.19,26.19,0,0,1,156.45,339Zm-.11-6.16h-.64a12.81,12.81,0,0,0-4,.53l0,0a18.64,18.64,0,0,0,.37,4.94v0a.06.06,0,0,0,.06.06,23.77,23.77,0,0,0,8.46,0h0a.06.06,0,0,0,.06-.05c.32-2.21.58-4.34.29-4.92l0,0A14.49,14.49,0,0,0,156.34,332.83Z"/><path class="cls-21" d="M151.56,333.32c-.74,1.13,4.06,2.7,4.68,2.81h.14c.62-.13,5.42-1.26,4.69-2.78C160.48,332.15,152.3,332.2,151.56,333.32Z"/><path d="M156.32,336.24h-.1c-.45-.08-4.27-1.27-4.79-2.4a.54.54,0,0,1,0-.56c.52-.79,4-1,6.39-.86,1.1.07,3,.27,3.3.9a.78.78,0,0,1,0,.74,4.36,4.36,0,0,1-2.42,1.51,17.75,17.75,0,0,1-2.33.67Zm.05-3.67c-2.33,0-4.41.33-4.72.81a.35.35,0,0,0,0,.37c.45,1,4.1,2.19,4.63,2.28a.14.14,0,0,0,.09,0c1.38-.3,4.12-1.11,4.61-2.07a.59.59,0,0,0,0-.56c-.18-.38-1.38-.68-3.13-.79C157.35,332.58,156.86,332.57,156.37,332.57Z"/></g></g></g><g id="green"><circle class="cls-22" cx="528.93" cy="181.11" r="31.58"/><g id="post_office-2" data-name="post office"><rect class="cls-14" x="513.26" y="170.34" width="30.64" height="21.88"/><rect class="cls-15" x="511.96" y="193.33" width="33.38" height="0.17"/><rect class="cls-16" x="510.89" y="194.62" width="35.52" height="0.21"/><rect class="cls-17" x="525" y="178.69" width="7.87" height="13.86"/><ellipse class="cls-18" cx="532.01" cy="185.83" rx="0.15" ry="0.14"/><rect class="cls-19" x="509.53" y="165.48" width="38.51" height="4.61" rx="2.31" ry="2.31"/><g id="envelope-2" data-name="envelope"><path class="cls-20" d="M532.57,170.49a23.72,23.72,0,0,1-8.5,0,.18.18,0,0,1-.15-.14,18.24,18.24,0,0,1-.36-5,.16.16,0,0,1,.08-.1c1-.55,6.73-.91,9.26,0a.16.16,0,0,1,.1.08c.25.51.14,2.07-.28,5A.18.18,0,0,1,532.57,170.49Z"/><path d="M528.45,171a34.62,34.62,0,0,1-4.39-.36.27.27,0,0,1-.24-.23v0a18.69,18.69,0,0,1-.36-5,.26.26,0,0,1,.14-.17c1.06-.57,6.8-.92,9.35,0a.24.24,0,0,1,.15.13c.26.52.18,1.93-.27,5a.29.29,0,0,1-.23.23h0A26.19,26.19,0,0,1,528.45,171Zm-.11-6.16h-.64a12.81,12.81,0,0,0-4,.53l0,0a18.64,18.64,0,0,0,.37,4.94v0a.06.06,0,0,0,.06.06,23.77,23.77,0,0,0,8.46,0h0a.06.06,0,0,0,.06,0c.32-2.21.58-4.34.29-4.92l0,0A14.49,14.49,0,0,0,528.34,164.83Z"/><path class="cls-21" d="M523.56,165.32c-.74,1.13,4.06,2.7,4.68,2.81h.14c.62-.13,5.42-1.26,4.69-2.78C532.48,164.15,524.3,164.2,523.56,165.32Z"/><path d="M528.32,168.24h-.1c-.45-.08-4.27-1.27-4.79-2.4a.54.54,0,0,1,0-.56c.52-.79,4-1,6.39-.86,1.1.07,3,.27,3.3.9a.78.78,0,0,1,0,.74,4.36,4.36,0,0,1-2.42,1.51,17.75,17.75,0,0,1-2.33.67Zm0-3.67c-2.33,0-4.41.33-4.72.81a.35.35,0,0,0,0,.37c.45,1,4.1,2.19,4.63,2.28h.09c1.38-.3,4.12-1.11,4.61-2.07a.59.59,0,0,0,0-.56c-.18-.38-1.38-.68-3.13-.79C529.35,164.58,528.86,164.57,528.37,164.57Z"/></g></g></g><line class="cls-11" x1="151.67" y1="136.41" x2="59.24" y2="159.56"/><g id="purple"><circle class="cls-23" cx="217.35" cy="185.49" r="31.58"/><g id="post_office-3" data-name="post office"><rect class="cls-14" x="201.67" y="174.72" width="30.64" height="21.88"/><rect class="cls-15" x="200.37" y="197.72" width="33.38" height="0.17"/><rect class="cls-16" x="199.3" y="199" width="35.52" height="0.21"/><rect class="cls-17" x="213.42" y="183.08" width="7.87" height="13.86"/><ellipse class="cls-18" cx="220.42" cy="190.21" rx="0.15" ry="0.14"/><rect class="cls-19" x="197.95" y="169.86" width="38.51" height="4.61" rx="2.31" ry="2.31"/><g id="envelope-3" data-name="envelope"><path class="cls-20" d="M221,175.16a23.9,23.9,0,0,1-8.49,0,.17.17,0,0,1-.15-.14,18.79,18.79,0,0,1-.37-5,.21.21,0,0,1,.08-.11c1-.54,6.73-.9,9.26,0a.21.21,0,0,1,.1.08c.26.52.14,2.08-.28,5A.17.17,0,0,1,221,175.16Z"/><path d="M216.85,175.66a36.59,36.59,0,0,1-4.39-.36.28.28,0,0,1-.24-.23v0a17.89,17.89,0,0,1-.36-5,.24.24,0,0,1,.13-.18c1.06-.57,6.8-.91,9.35,0a.24.24,0,0,1,.15.13c.26.51.18,1.93-.27,5a.27.27,0,0,1-.23.23h0A25.21,25.21,0,0,1,216.85,175.66Zm-.11-6.16h-.63a13.17,13.17,0,0,0-4,.52.1.1,0,0,0,0,.05,19,19,0,0,0,.37,4.93v0a.09.09,0,0,0,.06.06,23.77,23.77,0,0,0,8.46,0h0A.06.06,0,0,0,221,175c.32-2.21.58-4.33.29-4.91l0,0A14.61,14.61,0,0,0,216.74,169.5Z"/><path class="cls-21" d="M212,170c-.74,1.13,4.06,2.7,4.68,2.81h.14c.62-.14,5.42-1.26,4.69-2.78C220.89,168.82,212.7,168.87,212,170Z"/><path d="M216.72,172.91h-.1c-.45-.08-4.27-1.27-4.78-2.4a.56.56,0,0,1,0-.56c.52-.79,4-1,6.39-.86,1.1.06,3,.27,3.3.9a.78.78,0,0,1,0,.74,4.36,4.36,0,0,1-2.42,1.51,22.07,22.07,0,0,1-2.33.67Zm.05-3.67c-2.33,0-4.4.33-4.72.81a.36.36,0,0,0,0,.36c.45,1,4.11,2.2,4.63,2.29h.1c1.38-.3,4.11-1.11,4.6-2.07a.61.61,0,0,0,0-.57c-.18-.37-1.38-.67-3.13-.78C217.75,169.25,217.26,169.24,216.77,169.24Z"/></g></g></g><g id="blue"><circle class="cls-4" cx="84.73" cy="152.73" r="31.58"/><g id="post_office-4" data-name="post office"><rect class="cls-14" x="69.05" y="141.95" width="30.64" height="21.88"/><rect class="cls-15" x="67.75" y="164.95" width="33.38" height="0.17"/><rect class="cls-16" x="66.68" y="166.23" width="35.52" height="0.21"/><rect class="cls-17" x="80.79" y="150.31" width="7.87" height="13.86"/><ellipse class="cls-18" cx="87.8" cy="157.45" rx="0.15" ry="0.14"/><rect class="cls-19" x="65.32" y="137.1" width="38.51" height="4.61" rx="2.31" ry="2.31"/><g id="envelope-4" data-name="envelope"><path class="cls-20" d="M88.32,142.15a23.91,23.91,0,0,1-8.49,0,.19.19,0,0,1-.16-.14,19.09,19.09,0,0,1-.36-5,.16.16,0,0,1,.08-.1c1-.55,6.73-.9,9.26,0a.14.14,0,0,1,.1.08c.26.51.14,2.07-.28,5A.18.18,0,0,1,88.32,142.15Z"/><path d="M84.2,142.64a34.62,34.62,0,0,1-4.39-.36.28.28,0,0,1-.24-.23v0a17.87,17.87,0,0,1-.36-5,.23.23,0,0,1,.13-.17c1.06-.57,6.8-.92,9.35,0a.24.24,0,0,1,.15.13c.26.52.18,1.93-.27,5a.28.28,0,0,1-.23.23h0A26.19,26.19,0,0,1,84.2,142.64Zm-.11-6.16h-.64a12.74,12.74,0,0,0-4,.53.08.08,0,0,0,0,0,19.08,19.08,0,0,0,.37,4.94v0a.06.06,0,0,0,.06.06,23.77,23.77,0,0,0,8.46,0h0a.06.06,0,0,0,.06,0c.32-2.21.58-4.34.29-4.92l0,0A14.61,14.61,0,0,0,84.09,136.48Z"/><path class="cls-21" d="M79.31,137c-.74,1.12,4.06,2.69,4.68,2.8h.14c.62-.13,5.42-1.26,4.69-2.78C88.24,135.8,80.05,135.85,79.31,137Z"/><path d="M84.07,139.89H84c-.45-.08-4.27-1.27-4.78-2.4a.54.54,0,0,1,0-.56c.52-.79,4-1,6.39-.86,1.1.07,3,.27,3.3.9a.78.78,0,0,1,0,.74,4.36,4.36,0,0,1-2.42,1.51,17.75,17.75,0,0,1-2.33.67Zm.05-3.67c-2.33,0-4.41.33-4.72.81a.37.37,0,0,0,0,.37c.45,1,4.11,2.19,4.63,2.28h.09c1.38-.3,4.12-1.11,4.61-2.07a.59.59,0,0,0,0-.56c-.18-.38-1.38-.68-3.13-.79C85.1,136.23,84.61,136.22,84.12,136.22Z"/></g></g></g><g id="orange"><circle class="cls-24" cx="655.1" cy="346.76" r="31.58"/><g id="post_office-5" data-name="post office"><rect class="cls-14" x="639.42" y="335.99" width="30.64" height="21.88"/><rect class="cls-15" x="638.12" y="358.98" width="33.38" height="0.17"/><rect class="cls-16" x="637.05" y="360.27" width="35.52" height="0.21"/><rect class="cls-17" x="651.16" y="344.34" width="7.87" height="13.86"/><ellipse class="cls-18" cx="658.17" cy="351.48" rx="0.15" ry="0.14"/><rect class="cls-19" x="635.69" y="331.13" width="38.51" height="4.61" rx="2.31" ry="2.31"/><g id="envelope-5" data-name="envelope"><path class="cls-20" d="M659.57,336.49a23.72,23.72,0,0,1-8.5,0,.18.18,0,0,1-.15-.14,18.24,18.24,0,0,1-.36-5,.16.16,0,0,1,.08-.1c1-.55,6.73-.91,9.26,0a.16.16,0,0,1,.1.08c.25.51.14,2.07-.28,5A.18.18,0,0,1,659.57,336.49Z"/><path d="M655.45,337a34.62,34.62,0,0,1-4.39-.36.27.27,0,0,1-.24-.23v0a18.69,18.69,0,0,1-.36-5,.26.26,0,0,1,.14-.17c1.06-.57,6.8-.92,9.35,0a.24.24,0,0,1,.15.13c.26.52.18,1.93-.27,5a.29.29,0,0,1-.23.23h0A26.19,26.19,0,0,1,655.45,337Zm-.11-6.16h-.64a12.81,12.81,0,0,0-4,.53l0,0a18.64,18.64,0,0,0,.37,4.94v0a.06.06,0,0,0,.06.06,23.77,23.77,0,0,0,8.46,0h0a.06.06,0,0,0,.06-.05c.32-2.21.58-4.34.29-4.92l0,0A14.49,14.49,0,0,0,655.34,330.83Z"/><path class="cls-21" d="M650.56,331.32c-.74,1.13,4.06,2.7,4.68,2.81h.14c.62-.13,5.42-1.26,4.69-2.78C659.48,330.15,651.3,330.2,650.56,331.32Z"/><path d="M655.32,334.24h-.1c-.45-.08-4.27-1.27-4.79-2.4a.54.54,0,0,1,0-.56c.52-.79,4-1,6.39-.86,1.1.07,3,.27,3.3.9a.78.78,0,0,1,0,.74,4.36,4.36,0,0,1-2.42,1.51,17.75,17.75,0,0,1-2.33.67Zm0-3.67c-2.33,0-4.41.33-4.72.81a.35.35,0,0,0,0,.37c.45,1,4.1,2.19,4.63,2.28a.14.14,0,0,0,.09,0c1.38-.3,4.12-1.11,4.61-2.07a.59.59,0,0,0,0-.56c-.18-.38-1.38-.68-3.13-.79C656.35,330.58,655.86,330.57,655.37,330.57Z"/></g></g></g></g></g></g></g></g></svg>